<?xml version="1.0" encoding="UTF-8" standalone="no"?>
<!-- Generator: Adobe Illustrator 19.1.0, SVG Export Plug-In . SVG Version: 6.00 Build 0)  -->

<svg
   version="1.1"
   id="Capa_1"
   x="0px"
   y="0px"
   viewBox="0 0 406.48 406.48"
   style="enable-background:new 0 0 406.48 406.48;"
   xml:space="preserve"
   sodipodi:docname="marijuana-svgrepo-com(1).svg"
   inkscape:version="1.2.1 (9c6d41e410, 2022-07-14)"
   xmlns:inkscape="http://www.inkscape.org/namespaces/inkscape"
   xmlns:sodipodi="http://sodipodi.sourceforge.net/DTD/sodipodi-0.dtd"
   xmlns="http://www.w3.org/2000/svg"
   xmlns:svg="http://www.w3.org/2000/svg"><defs
   id="defs62" /><sodipodi:namedview
   id="namedview60"
   pagecolor="#505050"
   bordercolor="#eeeeee"
   borderopacity="1"
   inkscape:showpageshadow="0"
   inkscape:pageopacity="0"
   inkscape:pagecheckerboard="0"
   inkscape:deskcolor="#505050"
   showgrid="false"
   inkscape:zoom="1.4647311"
   inkscape:cx="-30.722363"
   inkscape:cy="157.70813"
   inkscape:window-width="1920"
   inkscape:window-height="1022"
   inkscape:window-x="0"
   inkscape:window-y="32"
   inkscape:window-maximized="1"
   inkscape:current-layer="Capa_1" />
<g
   id="g27"
   style="display:inline">
	<g
   id="XMLID_22_"
   style="display:inline">
		<g
   id="g22"
   style="display:inline">
			<path
   style="fill:#333333"
   d="m 369.15,272.57 c 1.88,1.19 3.02,3.26 3.02,5.49 0,2.23 -1.14,4.31 -3.02,5.5 -24.02,15.16 -52.03,23.59 -80.38,24.42 6.3,6.98 11.69,14.75 16.08,23.23 1.03,1.98 0.97,4.35 -0.16,6.27 -1.12,1.93 -3.16,3.14 -5.39,3.22 -1.22,0.04 -2.44,0.06 -3.65,0.06 -33.49,0 -65.13,-15.43 -85.91,-41 v 63.61 c 0,3.59 -2.91,6.5 -6.5,6.5 -3.59,0 -6.5,-2.91 -6.5,-6.5 v -63.61 c -20.79,25.57 -52.43,41 -85.92,41 -1.21,0 -2.43,-0.02 -3.65,-0.06 -2.23,-0.08 -4.26,-1.29 -5.39,-3.22 -1.13,-1.92 -1.19,-4.29 -0.16,-6.27 4.39,-8.47 9.76,-16.23 16.05,-23.2 -28.46,-0.73 -55.95,-9.04 -80.34,-24.45 -1.89,-1.19 -3.03,-3.27 -3.03,-5.5 0,-2.23 1.14,-4.3 3.03,-5.49 25.39,-16.04 54.67,-24.52 84.69,-24.52 1.06,0 2.11,0.02 3.17,0.04 -34.51,-27.1 -59.15,-65.56 -68.98,-108.69 -0.49,-2.18 0.16,-4.45 1.74,-6.04 1.57,-1.58 3.85,-2.24 6.02,-1.75 35.56,7.96 67.98,25.74 93.78,51.43 1.95,1.94 3.85,3.93 5.72,5.96 -1.67,-11.42 -2.53,-22.99 -2.53,-34.64 0,-45.08 12.73,-89.06 36.8,-127.17 1.19,-1.88 3.27,-3.03 5.5,-3.03 2.23,0 4.3,1.15 5.49,3.03 24.08,38.11 36.8,82.09 36.8,127.17 0,11.65 -0.85,23.22 -2.53,34.64 1.87,-2.03 3.78,-4.02 5.73,-5.96 25.79,-25.69 58.22,-43.47 93.77,-51.43 2.17,-0.49 4.45,0.17 6.03,1.75 1.57,1.59 2.22,3.86 1.73,6.04 -9.83,43.13 -34.47,81.59 -68.97,108.69 1.05,-0.02 2.11,-0.04 3.16,-0.04 30.02,0 59.31,8.48 84.7,24.52 z m -16.41,5.5 c -20.99,-11.16 -44.39,-17.02 -68.29,-17.02 -8.67,0 -17.33,0.79 -25.78,2.32 -12.13,6.99 -24.96,12.62 -38.29,16.81 16.32,7.99 34.09,12.92 52.17,14.39 0.13,0.01 0.26,0.03 0.39,0.04 27.95,2.21 55.32,-3.49 79.8,-16.54 z m -99.59,-26.51 c 39.56,-23.12 68.9,-60.84 81.71,-104.59 -29.04,8.36 -55.47,23.87 -76.96,45.28 -7.64,7.61 -14.61,15.94 -20.75,24.78 -4.79,17.55 -11.58,34.53 -20.3,50.63 12.65,-4.01 24.81,-9.39 36.3,-16.1 z m 34.36,75.85 c -5.06,-7.51 -11.13,-14.22 -18.12,-20.08 -15.74,-1.5 -31.24,-5.39 -45.87,-11.47 16.48,18.02 39.4,29.47 63.99,31.55 z M 232.53,154.36 c 0,-39.05 -10.09,-77.22 -29.29,-111.05 -19.2,33.83 -29.3,72 -29.3,111.05 0,39.05 10.1,77.22 29.3,111.05 19.2,-33.83 29.29,-72 29.29,-111.05 z m -42.91,113.3 c -8.71,-16.1 -15.51,-33.08 -20.29,-50.62 -6.14,-8.85 -13.12,-17.19 -20.76,-24.79 -21.49,-21.4 -47.92,-36.92 -76.96,-45.28 12.82,43.75 42.15,81.47 81.71,104.59 11.49,6.71 23.65,12.09 36.3,16.1 z m -3.53,12.52 c -13.33,-4.19 -26.15,-9.82 -38.29,-16.81 -8.45,-1.53 -17.11,-2.32 -25.78,-2.32 -23.9,0 -47.3,5.86 -68.29,17.02 24.49,13.05 51.85,18.75 79.8,16.54 0.13,-0.01 0.26,-0.03 0.39,-0.04 18.08,-1.47 35.85,-6.4 52.17,-14.39 z m -3.14,15.68 c -14.62,6.08 -30.13,9.97 -45.87,11.47 -6.98,5.86 -13.06,12.57 -18.12,20.08 24.6,-2.08 47.51,-13.53 63.99,-31.55 z"
   id="path2" />
			<path
   style="fill:#333333"
   d="m 203.24,0.25 c 111.93,0 202.99,91.06 202.99,202.99 0,111.93 -91.06,202.99 -202.99,202.99 C 91.31,406.23 0.25,315.17 0.25,203.24 0.25,91.31 91.31,0.25 203.24,0.25 Z M 393.23,203.24 C 393.23,98.48 308,13.25 203.24,13.25 98.48,13.25 13.25,98.48 13.25,203.24 13.25,308 98.48,393.23 203.24,393.23 308,393.23 393.23,308 393.23,203.24 Z"
   id="path4" />
			<path
   style="fill:#bad3de;fill-opacity:1"
   d="M 203.24,13.25 C 308,13.25 393.23,98.48 393.23,203.24 393.23,308 308,393.23 203.24,393.23 98.48,393.23 13.25,308 13.25,203.24 13.25,98.48 98.48,13.25 203.24,13.25 Z m 168.93,264.81 c 0,-2.23 -1.14,-4.3 -3.02,-5.49 -25.39,-16.04 -54.68,-24.52 -84.7,-24.52 -1.05,0 -2.11,0.02 -3.16,0.04 34.5,-27.1 59.14,-65.56 68.97,-108.69 0.49,-2.18 -0.16,-4.45 -1.73,-6.04 -1.58,-1.58 -3.86,-2.24 -6.03,-1.75 -35.55,7.96 -67.98,25.74 -93.77,51.43 -1.95,1.94 -3.86,3.93 -5.73,5.96 1.68,-11.42 2.53,-22.99 2.53,-34.64 0,-45.08 -12.72,-89.06 -36.8,-127.17 -1.19,-1.88 -3.26,-3.03 -5.49,-3.03 -2.23,0 -4.31,1.15 -5.5,3.03 -24.07,38.11 -36.8,82.09 -36.8,127.17 0,11.65 0.86,23.22 2.53,34.64 -1.87,-2.03 -3.77,-4.02 -5.72,-5.96 -25.8,-25.69 -58.22,-43.47 -93.78,-51.43 -2.17,-0.49 -4.45,0.17 -6.02,1.75 -1.58,1.59 -2.23,3.86 -1.74,6.04 9.83,43.13 34.47,81.59 68.98,108.69 -1.06,-0.02 -2.11,-0.04 -3.17,-0.04 -30.02,0 -59.3,8.48 -84.69,24.52 -1.89,1.19 -3.03,3.26 -3.03,5.49 0,2.23 1.14,4.31 3.03,5.5 24.39,15.41 51.88,23.72 80.34,24.45 -6.29,6.97 -11.66,14.73 -16.05,23.2 -1.03,1.98 -0.97,4.35 0.16,6.27 1.13,1.93 3.16,3.14 5.39,3.22 1.22,0.04 2.44,0.06 3.65,0.06 33.49,0 65.13,-15.43 85.92,-41 v 63.61 c 0,3.59 2.91,6.5 6.5,6.5 3.59,0 6.5,-2.91 6.5,-6.5 v -63.61 c 20.78,25.57 52.42,41 85.91,41 1.21,0 2.43,-0.02 3.65,-0.06 2.23,-0.08 4.27,-1.29 5.39,-3.22 1.13,-1.92 1.19,-4.29 0.16,-6.27 -4.39,-8.48 -9.78,-16.25 -16.08,-23.23 28.35,-0.83 56.36,-9.26 80.38,-24.42 1.88,-1.19 3.02,-3.27 3.02,-5.5 z"
   id="path6" />
			<path
   style="fill:#80b44e;fill-opacity:1"
   d="m 284.45,261.05 c 23.9,0 47.3,5.86 68.29,17.02 -24.48,13.05 -51.85,18.75 -79.8,16.54 -0.13,-0.01 -0.26,-0.03 -0.39,-0.04 -18.08,-1.47 -35.85,-6.4 -52.17,-14.39 13.33,-4.19 26.16,-9.82 38.29,-16.81 8.45,-1.53 17.11,-2.32 25.78,-2.32 z"
   id="path8" />
			<path
   style="fill:#80b44e;fill-opacity:1"
   d="m 334.86,146.97 c -12.81,43.75 -42.15,81.47 -81.71,104.59 -11.49,6.71 -23.65,12.09 -36.3,16.1 8.72,-16.1 15.51,-33.08 20.3,-50.63 6.14,-8.84 13.11,-17.17 20.75,-24.78 21.49,-21.41 47.92,-36.92 76.96,-45.28 z"
   id="path10" />
			<path
   style="fill:#80b44e;fill-opacity:1"
   d="m 269.39,307.33 c 6.99,5.86 13.06,12.57 18.12,20.08 -24.59,-2.08 -47.51,-13.53 -63.99,-31.55 14.63,6.08 30.13,9.97 45.87,11.47 z"
   id="path12" />
			<path
   style="fill:#80b44e;fill-opacity:1"
   d="m 203.24,43.31 c 19.2,33.83 29.29,72 29.29,111.05 0,39.05 -10.09,77.22 -29.29,111.05 -19.2,-33.83 -29.3,-72 -29.3,-111.05 0,-39.05 10.1,-77.22 29.3,-111.05 z"
   id="path14" />
			<path
   style="fill:#80b44e;fill-opacity:1"
   d="m 169.33,217.04 c 4.78,17.54 11.58,34.52 20.29,50.62 -12.65,-4.01 -24.81,-9.39 -36.3,-16.1 -39.56,-23.12 -68.89,-60.84 -81.71,-104.59 29.04,8.36 55.47,23.88 76.96,45.28 7.64,7.6 14.62,15.94 20.76,24.79 z"
   id="path16" />
			<path
   style="fill:#80b44e;fill-opacity:1"
   d="m 147.8,263.37 c 12.14,6.99 24.96,12.62 38.29,16.81 -16.32,7.99 -34.09,12.92 -52.17,14.39 -0.13,0.01 -0.26,0.03 -0.39,0.04 -27.95,2.21 -55.31,-3.49 -79.8,-16.54 20.99,-11.16 44.39,-17.02 68.29,-17.02 8.67,0 17.33,0.79 25.78,2.32 z"
   id="path18" />
			<path
   style="fill:#80b44e;fill-opacity:1"
   d="m 137.08,307.33 c 15.74,-1.5 31.25,-5.39 45.87,-11.47 -16.48,18.02 -39.39,29.47 -63.99,31.55 5.06,-7.51 11.14,-14.22 18.12,-20.08 z"
   id="path20" />
		</g>
		<g
   id="g24"
   style="display:inline">
		</g>
	</g>
</g>
<g
   id="g29">
</g>
<g
   id="g31">
</g>
<g
   id="g33">
</g>
<g
   id="g35">
</g>
<g
   id="g37">
</g>
<g
   id="g39">
</g>
<g
   id="g41">
</g>
<g
   id="g43">
</g>
<g
   id="g45">
</g>
<g
   id="g47">
</g>
<g
   id="g49">
</g>
<g
   id="g51">
</g>
<g
   id="g53">
</g>
<g
   id="g55">
</g>
<g
   id="g57">
</g>
</svg>
